<svg viewBox="0 0 1024 1024" version="1.1"
  xmlns="http://www.w3.org/2000/svg" width="16" height="16"
  xmlns:xlink="http://www.w3.org/1999/xlink">
  <path d="M862.36 958H160.63a51.4 51.4 0 0 1-51.34-51.35V119.33A51.4 51.4 0 0 1 160.63 68H624a33.66 33.66 0 0 1 24 9.92l255.78 255.82a33.7 33.7 0 0 1 9.93 24v548.89A51.4 51.4 0 0 1 862.36 958zM623.75 102.11l-463.12 0.1a17.14 17.14 0 0 0-17.11 17.12v787.3a17.14 17.14 0 0 0 17.11 17.12h701.73a17.14 17.14 0 0 0 17.12-17.12V357.7z" fill="#000000"></path>
  <path d="M665.17 350.75h231.42L630.94 85.1v231.42a34.33 34.33 0 0 0 34.23 34.23z" fill="#000000"></path>
  <path d="M896.6 367.87H665.17a51.41 51.41 0 0 1-51.34-51.35V85.1A17.11 17.11 0 0 1 643 73l265.7 265.65a17.12 17.12 0 0 1-12.1 29.22zM648.06 126.42v190.1a17.14 17.14 0 0 0 17.11 17.12h190.11z" fill="#000000"></path>
  <path d="M425.79 548.53q0 24.65-7.67 42.85a81.11 81.11 0 0 1-21.77 30.4 90.76 90.76 0 0 1-34 18.07 154.44 154.44 0 0 1-43.95 5.89q-11.51 0-26-1a175.4 175.4 0 0 1-27.67-4V456.51a166.45 166.45 0 0 1 27.94-3.84q14.78-0.81 26.29-0.81a158.83 158.83 0 0 1 43.54 5.61A89.64 89.64 0 0 1 396.35 475a78.63 78.63 0 0 1 21.77 30.12q7.67 18.21 7.67 43.41z m-126.52 66.53c2 0.19 4.65 0.33 7.94 0.42s7.76 0.14 13.42 0.14q34.77 0 51.89-17.67t17.12-49.42q0-32.32-16.71-49.57t-51.75-17.26a199.73 199.73 0 0 0-21.91 0.83zM619.4 548.53q0 24.36-7.26 43t-19.72 31.08a81.17 81.17 0 0 1-29.16 18.77 100.26 100.26 0 0 1-35.6 6.3 101.4 101.4 0 0 1-35.74-6.3 80.87 80.87 0 0 1-29.3-18.77q-12.47-12.44-19.86-31.08t-7.39-43q0-24.37 7.39-42.86a90.27 90.27 0 0 1 20.13-31.09 83.2 83.2 0 0 1 29.44-18.89 102.19 102.19 0 0 1 70.65 0 80.58 80.58 0 0 1 29.17 18.89A92.37 92.37 0 0 1 612 505.67q7.4 18.48 7.4 42.86z m-148.15 0a97.91 97.91 0 0 0 3.83 28.33 61.91 61.91 0 0 0 11.09 21.64 50.35 50.35 0 0 0 17.66 13.83 54.33 54.33 0 0 0 23.56 4.93 53.66 53.66 0 0 0 23.27-4.93 50.35 50.35 0 0 0 17.66-13.83 62.08 62.08 0 0 0 11.09-21.64 106.5 106.5 0 0 0 0-56.68 62.12 62.12 0 0 0-11.09-21.63 50.12 50.12 0 0 0-17.66-13.83 53.66 53.66 0 0 0-23.27-4.94 54.33 54.33 0 0 0-23.56 4.94 49.58 49.58 0 0 0-17.66 14 63.71 63.71 0 0 0-11.09 21.64 96.59 96.59 0 0 0-3.83 28.17zM721 647.66q-21.36 0-38.35-6.58a75.75 75.75 0 0 1-28.75-19.3 86.52 86.52 0 0 1-18.07-31.08q-6.3-18.35-6.3-42.17t7.25-42.18a91.33 91.33 0 0 1 19.86-31.08A83.47 83.47 0 0 1 686.21 456a100 100 0 0 1 36.42-6.57 117.33 117.33 0 0 1 21.37 1.74 153 153 0 0 1 16.7 4 69.1 69.1 0 0 1 11.78 4.65q4.65 2.47 6.56 3.56l-10.12 28.21q-6.57-4.11-18.77-7.8a90.42 90.42 0 0 0-26.42-3.7 61.68 61.68 0 0 0-23 4.25A49.64 49.64 0 0 0 682.25 497a59.21 59.21 0 0 0-12.19 21.36q-4.38 12.87-4.39 29.85a105.34 105.34 0 0 0 3.43 27.66 61 61 0 0 0 10.55 21.77 47.71 47.71 0 0 0 18.06 14.24q11 5.07 26.3 5.07 18.33 0 29.85-3.71a119.17 119.17 0 0 0 17.8-7l9.31 28.2a47.22 47.22 0 0 1-8.9 4.38 129.84 129.84 0 0 1-13.28 4.25 132.17 132.17 0 0 1-17.26 3.28 159.75 159.75 0 0 1-20.53 1.31z" fill="#000000"></path>
</svg>
